<?xml version="1.0" standalone="no"?>
<!DOCTYPE svg PUBLIC "-//W3C//DTD SVG 20010904//EN"
 "http://www.w3.org/TR/2001/REC-SVG-20010904/DTD/svg10.dtd">
<svg version="1.0" xmlns="http://www.w3.org/2000/svg"
 width="640.000000pt" height="640.000000pt" viewBox="0 0 640.000000 640.000000"
 preserveAspectRatio="xMidYMid meet">
<metadata>
Created by potrace 1.14, written by Peter Selinger 2001-2017
</metadata>
<g transform="translate(0.000000,640.000000) scale(0.100000,-0.100000)"
fill="#000000" stroke="none">
<path d="M5008 5865 c-2 -2 -25 -5 -53 -8 -27 -3 -62 -8 -78 -12 -63 -13 -235
-92 -264 -120 -8 -8 -18 -15 -21 -15 -26 0 -212 -209 -212 -238 0 -5 -4 -12
-8 -14 -9 -4 -62 -120 -67 -150 -3 -11 -9 -35 -14 -52 -41 -132 -24 -412 44
-721 12 -55 12 -72 2 -81 -6 -7 -59 -49 -117 -93 -58 -45 -116 -91 -130 -102
-14 -11 -83 -65 -155 -120 -71 -56 -139 -108 -150 -117 -11 -10 -47 -37 -80
-62 -33 -25 -62 -47 -65 -50 -3 -3 -34 -28 -70 -55 -36 -27 -79 -61 -96 -75
-16 -14 -45 -36 -63 -50 -19 -14 -101 -78 -184 -142 -83 -65 -153 -118 -156
-118 -3 0 -38 24 -78 53 -39 28 -81 59 -93 67 -12 8 -30 22 -41 30 -10 8 -41
31 -70 50 -28 19 -59 42 -68 50 -10 8 -25 20 -33 25 -19 12 -179 126 -193 138
-5 4 -50 37 -100 72 -49 35 -94 68 -100 72 -5 5 -73 53 -150 108 -77 55 -146
105 -153 112 -6 6 -21 15 -32 18 -11 3 -20 10 -20 15 0 5 -13 16 -29 25 -16 8
-35 20 -43 28 -7 7 -29 24 -48 37 -19 13 -37 27 -40 30 -3 3 -12 10 -21 15
-10 6 -50 34 -90 63 -68 48 -71 52 -43 53 16 0 211 1 434 3 393 2 406 2 451
23 53 25 111 86 135 140 9 21 16 67 17 103 1 81 -28 145 -91 200 -75 67 -76
67 -593 65 -255 -2 -477 -5 -494 -9 -204 -44 -378 -222 -409 -421 -8 -49 -9
-150 -1 -188 16 -80 68 -192 106 -229 10 -10 21 -24 26 -31 4 -7 35 -35 68
-61 79 -62 67 -53 175 -131 52 -38 107 -78 121 -89 14 -12 36 -28 49 -36 12
-8 69 -50 127 -92 57 -43 106 -78 108 -78 3 0 16 -10 30 -22 14 -12 80 -61
148 -109 67 -48 127 -92 133 -97 6 -5 35 -27 65 -48 30 -21 56 -41 59 -44 3
-3 46 -34 95 -70 50 -35 95 -68 100 -72 23 -19 121 -90 135 -98 18 -10 22 -7
-205 -184 l-160 -124 -25 18 c-14 10 -34 27 -45 37 -35 31 -93 73 -103 73 -6
0 -12 4 -14 8 -3 9 -102 68 -148 89 -111 50 -217 87 -284 98 -17 3 -39 8 -48
11 -37 11 -99 16 -228 17 -138 1 -220 -5 -277 -22 -18 -5 -33 -8 -33 -6 0 2
-18 -2 -40 -10 -22 -8 -41 -14 -43 -14 -32 3 -329 -134 -347 -161 -3 -4 -16
-13 -30 -20 -52 -27 -170 -135 -252 -230 -251 -292 -360 -696 -293 -1085 29
-168 113 -370 219 -525 88 -129 271 -300 406 -378 41 -24 157 -82 163 -82 3 0
22 -8 43 -17 22 -9 44 -18 49 -19 6 -1 44 -11 85 -22 115 -32 211 -44 350 -44
68 -1 99 2 213 18 21 3 82 18 135 33 182 53 328 129 476 250 220 178 379 432
446 714 47 196 47 425 -1 612 -26 101 -25 96 -33 120 -38 102 -38 99 -24 110
8 5 60 46 117 90 57 44 125 95 150 114 25 19 51 40 57 45 6 6 26 22 44 36 128
97 226 175 228 182 2 4 10 8 17 8 7 0 15 3 17 8 2 4 23 23 48 42 25 19 52 40
60 47 8 7 60 47 115 90 55 43 102 81 103 85 2 4 8 8 13 8 5 0 17 8 27 18 11 9
32 26 47 37 16 11 33 25 39 30 6 6 29 24 51 40 22 16 54 41 70 55 17 14 44 34
59 45 16 11 33 25 40 30 6 6 40 33 76 60 87 66 89 68 108 85 10 8 33 26 52 40
19 13 37 27 40 30 3 3 43 35 90 70 96 74 118 91 134 106 35 32 126 93 129 86
3 -4 15 -41 27 -82 12 -41 33 -111 47 -155 13 -44 32 -105 40 -135 9 -30 20
-64 24 -75 8 -19 52 -165 69 -230 4 -16 11 -37 14 -46 6 -13 -9 -21 -76 -43
-90 -30 -238 -95 -238 -105 0 -3 -15 -13 -32 -21 -18 -7 -37 -17 -43 -22 -5
-4 -44 -34 -85 -66 -116 -90 -186 -164 -297 -318 -19 -25 -120 -215 -123 -229
-1 -7 -9 -33 -17 -52 -3 -10 -7 -20 -7 -23 -1 -3 -4 -9 -7 -15 -4 -5 -10 -26
-15 -45 -4 -19 -9 -42 -12 -50 -2 -8 -5 -26 -7 -40 -2 -14 -9 -52 -15 -84 -19
-99 -17 -320 5 -426 3 -14 8 -38 10 -53 12 -63 70 -227 106 -299 73 -145 177
-289 271 -373 94 -85 115 -102 184 -148 134 -88 269 -147 428 -187 109 -28
171 -34 316 -34 161 0 224 8 370 48 26 8 123 43 160 59 19 8 38 14 41 14 4 -1
15 5 25 14 11 8 40 26 67 40 26 13 47 27 47 31 0 5 5 8 11 8 15 0 165 119 214
170 22 22 52 54 68 70 15 16 27 33 27 39 0 6 4 11 8 11 15 0 117 160 159 250
40 85 88 219 98 275 2 17 7 41 10 55 37 181 19 482 -39 645 -48 135 -95 233
-153 320 -21 32 -42 65 -48 73 -61 96 -254 271 -375 341 -30 18 -62 36 -70 41
-73 46 -322 130 -412 139 -5 1 -8 9 -8 19 0 10 -3 22 -7 26 -4 3 -8 14 -9 23
-2 9 -5 27 -9 40 -3 13 -6 26 -6 30 -1 5 -5 15 -10 24 -4 9 -10 27 -12 40 -5
23 -32 116 -44 149 -4 8 -7 20 -8 25 0 6 -4 17 -7 25 -9 22 -108 322 -113 340
-2 8 -13 47 -25 85 -47 156 -115 425 -134 530 -3 17 -8 40 -11 53 -3 12 -7 30
-9 40 -2 9 -7 40 -10 67 -4 28 -11 68 -16 90 -5 22 -11 65 -15 95 -3 30 -9 63
-11 73 -13 45 -12 155 2 199 40 123 181 202 311 174 71 -15 151 -80 180 -145
20 -44 21 -52 27 -125 13 -144 114 -246 249 -251 62 -3 137 12 137 26 0 5 6 9
13 9 8 0 32 18 54 39 54 53 81 127 77 211 -4 93 -13 160 -26 184 -6 12 -10 21
-8 21 11 0 -71 187 -90 205 -3 3 -13 17 -23 32 -53 84 -188 198 -302 256 -49
24 -158 58 -217 67 -46 8 -185 14 -190 10z m-3496 -3219 c324 -78 553 -327
614 -666 9 -53 6 -213 -5 -242 -5 -14 -8 -28 -5 -31 2 -2 -9 -44 -25 -92 -98
-286 -344 -494 -638 -539 -303 -47 -619 95 -788 354 -119 181 -158 403 -111
618 38 174 156 352 306 463 35 26 161 98 170 98 3 0 19 5 35 11 115 45 318 57
447 26z m3686 9 c165 -25 337 -118 454 -244 324 -352 272 -899 -113 -1189 -31
-23 -61 -42 -67 -42 -5 0 -12 -4 -14 -8 -4 -9 -120 -62 -150 -67 -11 -3 -35
-9 -52 -14 -83 -26 -243 -31 -331 -11 -27 7 -59 13 -70 16 -34 6 -139 47 -155
59 -8 6 -37 24 -63 39 -65 37 -178 145 -227 218 -35 50 -111 201 -111 218 0 3
-2 14 -4 25 -3 11 -7 32 -9 47 -3 15 -7 32 -10 37 -7 11 -8 192 -2 239 7 46
32 141 47 177 7 17 13 32 14 35 6 23 61 117 95 161 181 233 475 350 768 304z"/>
</g>
</svg>
